<svg xmlns="http://www.w3.org/2000/svg" xmlns:xlink="http://www.w3.org/1999/xlink" width="213" height="21" viewBox="0 0 213 21">
    <defs>
        <path id="a" d="M0 .484h17.471v20.045H.001z"/>
        <path id="c" d="M.448.484h20.121v20.045H.448z"/>
        <path id="e" d="M.33.235h15.839v7.533H.329z"/>
    </defs>
    <g fill="none" fill-rule="evenodd">
        <path fill="#EF5039" d="M128.418 4.68h.48V.887h-5.147z"/>
        <path fill="#4FBB80" d="M192.78 6.673l2.65-3.128c-.433-.442-.9-.848-1.406-1.218-.094-.07-.197-.127-.295-.192l-3.011 3.043c.698.377 1.385.871 2.061 1.495"/>
        <g transform="translate(0 .071)">
            <mask id="b" fill="#fff">
                <use xlink:href="#a"/>
            </mask>
            <path fill="#4B80C1" d="M15.957 18.507a8.747 8.747 0 0 1-3.76 1.786 12.06 12.06 0 0 1-2.487.236c-1.389 0-2.678-.258-3.868-.776a9.515 9.515 0 0 1-3.084-2.117 9.697 9.697 0 0 1-2.028-3.17A10.425 10.425 0 0 1 0 10.56v-.055c0-1.385.244-2.68.73-3.89a10.06 10.06 0 0 1 2.028-3.184 9.406 9.406 0 0 1 3.11-2.16C7.078.748 8.412.485 9.872.485c.883 0 1.691.073 2.421.22.73.15 1.393.352 1.99.61a8.584 8.584 0 0 1 1.648.941c.505.37.974.776 1.407 1.218l-2.651 3.129c-.74-.683-1.492-1.218-2.258-1.605-.767-.388-1.628-.582-2.583-.582-.794 0-1.528.157-2.204.47a5.238 5.238 0 0 0-1.744 1.301A6.09 6.09 0 0 0 4.76 8.112a6.669 6.669 0 0 0-.406 2.339v.055c0 .83.135 1.615.406 2.353.27.738.644 1.385 1.121 1.939a5.24 5.24 0 0 0 1.731 1.315c.676.323 1.42.485 2.232.485 1.081 0 1.997-.203 2.746-.61.747-.406 1.49-.96 2.23-1.661l2.65 2.74a13.863 13.863 0 0 1-1.514 1.44" mask="url(#b)"/>
        </g>
        <g transform="translate(19.511 .071)">
            <mask id="d" fill="#fff">
                <use xlink:href="#c"/>
            </mask>
            <path fill="#4B80C1" d="M16.216 10.506c0-.83-.14-1.614-.42-2.353a5.873 5.873 0 0 0-1.19-1.938A5.72 5.72 0 0 0 12.782 4.9a5.437 5.437 0 0 0-2.3-.485c-.847 0-1.617.157-2.312.47a5.316 5.316 0 0 0-1.784 1.301 6.166 6.166 0 0 0-1.163 1.926 6.47 6.47 0 0 0-.42 2.338v.056c0 .83.14 1.615.42 2.353a5.89 5.89 0 0 0 1.19 1.939 5.765 5.765 0 0 0 1.812 1.314c.694.324 1.464.485 2.312.485.829 0 1.596-.156 2.299-.47a5.252 5.252 0 0 0 1.799-1.302 6.175 6.175 0 0 0 1.163-1.924c.279-.73.419-1.51.419-2.34v-.055zm3.597 3.89a10.062 10.062 0 0 1-2.096 3.184 9.727 9.727 0 0 1-3.192 2.16c-1.234.526-2.583.789-4.044.789-1.46 0-2.803-.263-4.029-.79a9.979 9.979 0 0 1-3.178-2.132 9.547 9.547 0 0 1-2.082-3.155c-.496-1.21-.744-2.507-.744-3.89v-.056c0-1.385.252-2.681.758-3.89a10.054 10.054 0 0 1 2.096-3.184 9.744 9.744 0 0 1 3.191-2.16C7.728.747 9.076.484 10.536.484s2.803.263 4.03.788a10.013 10.013 0 0 1 3.178 2.133 9.552 9.552 0 0 1 2.082 3.156c.496 1.208.743 2.505.743 3.89v.055c0 1.384-.252 2.681-.756 3.89z" mask="url(#d)"/>
        </g>
        <path fill="#4B80C1" d="M56.877 10.577c0-.848-.14-1.633-.42-2.353a5.555 5.555 0 0 0-1.163-1.855 5.145 5.145 0 0 0-1.798-1.204c-.703-.286-1.478-.43-2.326-.43h-3.218V16.42h3.218c.848 0 1.623-.138 2.326-.416a4.98 4.98 0 0 0 1.798-1.19 5.612 5.612 0 0 0 1.164-1.827c.28-.702.419-1.486.419-2.354v-.055zm3.624 3.821a9.045 9.045 0 0 1-2.069 3.074c-.893.868-1.957 1.55-3.192 2.048s-2.592.747-4.07.747h-7.384V.887h7.384c1.478 0 2.835.245 4.07.734 1.235.49 2.3 1.168 3.192 2.035a9.078 9.078 0 0 1 2.07 3.059c.485 1.172.73 2.441.73 3.807v.055c0 1.367-.245 2.64-.73 3.821zM64.936 20.267V.887h14.253V4.68H69.047V8.61h8.925v3.794h-8.925v4.07h10.277v3.792z"/>
        <path fill="#EF5039" d="M161.867 7.504c0-.922-.29-1.615-.865-2.076-.579-.461-1.38-.692-2.408-.692h-4.138V10.3h4.219c1.028 0 1.817-.25 2.367-.748s.825-1.163.825-1.993v-.056zm-.082 12.763l-4.057-6.2h-3.272v6.2h-4.165V.887h8.655c2.254 0 4.006.564 5.26 1.689 1.253 1.126 1.88 2.695 1.88 4.706v.056c0 1.57-.375 2.847-1.122 3.834-.749.988-1.728 1.712-2.935 2.174l4.625 6.921h-4.869z"/>
        <path fill="#4FBB80" d="M212.066 17.097a5.255 5.255 0 0 1-1.423 1.884c-.61.507-1.337.894-2.182 1.162-.844.267-1.78.401-2.807.401-1.444 0-2.858-.254-4.247-.76a11.192 11.192 0 0 1-3.787-2.34l2.462-3.018a12.3 12.3 0 0 0 2.664 1.717c.91.424 1.906.637 2.988.637.865 0 1.537-.162 2.015-.486.477-.322.717-.77.717-1.342v-.056c0-.277-.05-.52-.149-.733-.1-.212-.29-.41-.57-.596-.28-.183-.668-.369-1.166-.553a19.922 19.922 0 0 0-1.94-.582 23.225 23.225 0 0 1-2.602-.802c-.778-.296-1.438-.66-1.98-1.094a4.389 4.389 0 0 1-1.26-1.62c-.299-.645-.448-1.448-.448-2.408v-.056c0-.886.16-1.684.483-2.395a5.457 5.457 0 0 1 1.358-1.841 6.07 6.07 0 0 1 2.085-1.19c.808-.277 1.7-.416 2.673-.416 1.388 0 2.663.212 3.827.637a11.008 11.008 0 0 1 3.204 1.827l-2.162 3.212a13.678 13.678 0 0 0-2.49-1.398 6.229 6.229 0 0 0-2.433-.512c-.811 0-1.42.161-1.826.484-.405.323-.609.724-.609 1.204v.056c0 .313.06.586.177.817.117.23.33.438.637.623.308.184.728.36 1.261.526.534.166 1.207.36 2.02.581.958.259 1.813.55 2.563.872.75.323 1.382.71 1.899 1.163.515.452.903.983 1.166 1.592.26.61.393 1.338.393 2.188v.055c0 .96-.17 1.813-.511 2.56"/>
        <path fill="#4B80C1" d="M95.28 7.698l5.274 8.195h.096l9.452-14.689V.887h-4.49l-4.976 8.195L95.659.887H91.17v19.38h4.11z"/>
        <path fill="#FAB328" d="M105.99 14.826v5.441h4.112V8.437z"/>
        <path fill="#EF5039" d="M137.175 11.81l4.165 3.386V4.819h5.76V.887h-15.687V4.82h5.762z"/>
        <path fill="#FAB328" d="M137.175 16.89v3.377h4.155zM118.756 12.405h8.925V9.162l-.676-.55h-8.249V4.68h3.412L117.501.887h-2.856v19.38h14.388v-3.793h-10.277z"/>
        <path fill="#EF5039" d="M183.56 6.82c.134-.195.274-.385.43-.562.288-.328.615-.609.97-.854L189.647.67a13.099 13.099 0 0 0-1.681-.115c-1.461 0-2.795.263-4.003.789a9.403 9.403 0 0 0-3.11 2.159 10.013 10.013 0 0 0-2.028 3.185c-.488 1.208-.73 2.505-.73 3.889v.055c0 .543.048 1.07.122 1.587l5.343-5.399z"/>
        <g transform="translate(179.397 12.832)">
            <mask id="f" fill="#fff">
                <use xlink:href="#e"/>
            </mask>
            <path fill="#4FBB80" d="M11.287 3.227c-.748.406-1.663.61-2.745.61A5.105 5.105 0 0 1 6.31 3.35a5.244 5.244 0 0 1-1.73-1.314A6.15 6.15 0 0 1 3.512.235L.33 3.452c.331.512.705.987 1.126 1.422a9.496 9.496 0 0 0 3.082 2.118c1.192.517 2.48.776 3.868.776.92 0 1.749-.08 2.488-.236a8.785 8.785 0 0 0 2.043-.692 8.963 8.963 0 0 0 1.717-1.093 13.871 13.871 0 0 0 1.515-1.44l-2.65-2.741c-.74.701-1.484 1.255-2.232 1.66" mask="url(#f)"/>
        </g>
        <path fill="#EF5039" d="M174.2 16.25V.887h-4.165v19.38h.189z"/>
    </g>
</svg>
